<svg width="176" height="176" viewBox="0 0 176 176" fill="none" xmlns="http://www.w3.org/2000/svg">
                                    <path d="M82.3827 3.95294C84.7296 -0.623168 91.2704 -0.62317 93.6173 3.95293L101.537 19.3956C103.241 22.7184 107.441 23.8438 110.579 21.8183L125.159 12.4045C129.479 9.61488 135.144 12.8853 134.888 18.0217L134.026 35.3554C133.84 39.0851 136.915 42.1599 140.645 41.9743L157.978 41.1118C163.115 40.8562 166.385 46.5207 163.596 50.8412L154.182 65.4213C152.156 68.5585 153.282 72.7588 156.604 74.4629L172.047 82.3827C176.623 84.7296 176.623 91.2704 172.047 93.6173L156.604 101.537C153.282 103.241 152.156 107.441 154.182 110.579L163.596 125.159C166.385 129.479 163.115 135.144 157.978 134.888L140.645 134.026C136.915 133.84 133.84 136.915 134.026 140.645L134.888 157.978C135.144 163.115 129.479 166.385 125.159 163.596L110.579 154.182C107.441 152.156 103.241 153.282 101.537 156.604L93.6173 172.047C91.2704 176.623 84.7296 176.623 82.3827 172.047L74.4629 156.604C72.7588 153.282 68.5585 152.156 65.4213 154.182L50.8412 163.596C46.5207 166.385 40.8562 163.115 41.1118 157.978L41.9743 140.645C42.1599 136.915 39.0851 133.84 35.3554 134.026L18.0217 134.888C12.8853 135.144 9.61488 129.479 12.4045 125.159L21.8183 110.579C23.8438 107.441 22.7184 103.241 19.3956 101.537L3.95294 93.6173C-0.623168 91.2704 -0.62317 84.7296 3.95293 82.3827L19.3956 74.4629C22.7184 72.7588 23.8438 68.5585 21.8183 65.4213L12.4045 50.8412C9.61489 46.5207 12.8853 40.8562 18.0217 41.1118L35.3554 41.9743C39.0851 42.1599 42.1599 39.0851 41.9743 35.3554L41.1118 18.0217C40.8562 12.8853 46.5207 9.61489 50.8412 12.4045L65.4213 21.8183C68.5585 23.8438 72.7588 22.7184 74.4629 19.3956L82.3827 3.95294Z"></path>
                                </svg>